<svg xmlns="http://www.w3.org/2000/svg" width="213" height="249" viewBox="0 0 213 249" version="1.1">
	<path d="M 92 10.426 C 57.111 18.170, 30.899 43.276, 21.243 78.198 C 19.725 83.686, 19.500 89.474, 19.500 123 C 19.500 159.700, 19.606 161.915, 21.761 170.377 C 32.392 212.106, 68.064 240.002, 110.789 239.999 C 133.586 239.998, 151.367 233.914, 169.143 220.033 C 183.445 208.865, 195.075 190.848, 199.827 172.500 C 203.459 158.477, 205.311 128.169, 202.750 124.679 C 201.598 123.109, 197.737 122.996, 153.500 123.238 L 105.500 123.500 105.241 175.285 C 105.017 220.145, 104.782 227.146, 103.488 227.643 C 101.171 228.532, 85.910 225.386, 79.083 222.612 C 61.129 215.316, 45.115 198.934, 37.415 179.983 C 32.176 167.090, 31.678 162.291, 31.608 124 C 31.537 85.470, 31.734 83.699, 37.676 69.582 C 44.600 53.131, 60.956 36.116, 77 28.674 C 100.312 17.860, 129.084 18.640, 152.228 30.715 C 159.777 34.653, 170.083 43.621, 175.429 50.903 C 181.029 58.532, 186.025 69.584, 187.848 78.377 L 189.524 86.461 194.512 86.295 C 197.256 86.203, 199.890 86.099, 200.366 86.064 C 201.690 85.966, 200.059 73.484, 197.905 67.222 C 195.298 59.645, 188.918 48.032, 183.598 41.176 C 171.020 24.970, 153.524 14.704, 131.162 10.409 C 122.280 8.703, 99.717 8.713, 92 10.426 M 117.240 181.750 L 117.500 227.500 122.840 227.274 C 140.438 226.530, 160.150 216.105, 172.521 201 C 177.540 194.873, 183.912 183.123, 186.351 175.500 C 188.720 168.096, 190.991 152.570, 190.996 143.750 L 191 136 153.990 136 L 116.980 136 117.240 181.750" stroke="none" fill="#000000" fill-rule="evenodd"/>
</svg>