<svg xmlns="http://www.w3.org/2000/svg" width="213" height="249" viewBox="0 0 213 249" version="1.1">
	<path d="M 98 10.556 C 82.638 12.973, 72.983 16.567, 61.206 24.256 C 39.687 38.303, 25.046 60.842, 21.005 86.139 C 19.127 97.899, 20.181 158.324, 22.432 168 C 27.583 190.132, 39.320 208.712, 55.773 220.778 C 68.697 230.256, 81.751 235.848, 96.239 238.114 C 106.515 239.721, 126.637 238.669, 135.826 236.044 C 164.924 227.731, 187.494 206.401, 196.713 178.500 C 200.540 166.918, 201.193 162.339, 201.740 143.250 L 202.292 124 154.146 124 L 106 124 106 175.883 C 106 227.308, 105.982 227.771, 103.955 228.302 C 101.301 228.995, 90.994 227.506, 84 225.419 C 63.019 219.156, 42.603 199.076, 35.261 177.482 C 30.532 163.573, 30.500 163.210, 30.500 124 C 30.500 87.071, 30.537 86.386, 32.918 79 C 46.264 37.613, 85.421 13.792, 127.500 21.461 C 138.665 23.495, 142.474 24.692, 150.500 28.688 C 162.891 34.856, 171.983 43.195, 179.743 55.509 C 185.358 64.419, 189.959 76.777, 189.988 83.026 C 189.999 85.385, 190.316 85.547, 194.750 85.462 L 199.500 85.371 199.148 79.540 C 197.794 57.102, 177.037 29.223, 153.755 18.574 C 143.235 13.762, 134.629 11.532, 120.830 10.043 C 109.437 8.814, 109.014 8.824, 98 10.556 M 116.679 135.655 C 116.305 136.028, 116 156.906, 116 182.050 C 116 234.743, 114.730 229.566, 127.229 227.834 C 165.650 222.510, 193.370 186.750, 191.828 144.500 L 191.500 135.500 154.429 135.238 C 134.039 135.094, 117.052 135.281, 116.679 135.655" stroke="none" fill="#ffffff" fill-rule="evenodd"/>
</svg>