<svg xmlns="http://www.w3.org/2000/svg" width="213" height="249" viewBox="0 0 213 249" version="1.1">
	<path d="M 94.500 9.236 C 83.806 11.866, 76.030 14.461, 70.535 17.234 C 44.516 30.363, 27.685 51.371, 19.846 80.500 C 17.901 87.724, 17.925 156.991, 19.875 165.500 C 25.973 192.118, 39.517 212.318, 60.262 225.738 C 76.531 236.262, 90.947 240.439, 111 240.439 C 121.867 240.439, 126.255 239.987, 133.500 238.119 C 171.712 228.270, 197.744 199.012, 203.006 160 C 203.637 155.325, 204.006 145.200, 203.826 137.500 L 203.500 123.500 154 123.500 L 104.500 123.500 104.241 175.394 L 103.982 227.288 97.308 226.664 C 70.761 224.185, 45.801 203.179, 36.513 175.500 C 32.777 164.364, 32.003 155.412, 32.001 123.315 C 32 99.745, 32.358 90.429, 33.466 85.160 C 39.458 56.679, 60.285 33.801, 88.125 25.119 C 106.519 19.383, 129.994 20.974, 147.961 29.173 C 161.820 35.497, 174.152 47.435, 181.155 61.306 C 184.927 68.776, 185.841 71.539, 187.345 80 L 188.500 86.500 195 86.500 L 201.500 86.500 201.353 81.928 C 200.791 64.412, 187.822 40.985, 171.500 28.004 C 161.238 19.843, 148.401 13.650, 136.500 11.120 C 133.750 10.535, 129.388 9.594, 126.807 9.029 C 121.029 7.762, 99.944 7.898, 94.500 9.236 M 118 181.500 L 118 227 121.250 226.994 C 140.080 226.961, 162.270 214.702, 174.466 197.594 C 184.379 183.689, 188.869 169.473, 189.733 149.250 L 190.300 136 154.150 136 L 118 136 118 181.500" stroke="none" fill="#ffffff" fill-rule="evenodd"/>
</svg>